<svg width="40" height="40" viewBox="0 0 40 40" fill="none" xmlns="http://www.w3.org/2000/svg">
<g filter="url(#filter0_i_1_11881)">
<path d="M25.3733 25.8467L21.685 33.5967C21.6152 33.7432 21.5108 33.8706 21.3808 33.9677C21.2508 34.0649 21.0991 34.129 20.9388 34.1544C20.7785 34.1798 20.6144 34.1659 20.4607 34.1137C20.307 34.0615 20.1683 33.9727 20.0566 33.855L14.1533 27.6233C13.9956 27.457 13.7855 27.3499 13.5583 27.32L5.04662 26.2067C4.88581 26.1855 4.73256 26.1255 4.6001 26.0319C4.46764 25.9383 4.35994 25.8138 4.28628 25.6693C4.21263 25.5248 4.17524 25.3645 4.17733 25.2023C4.17942 25.0402 4.22093 24.8809 4.29829 24.7383L8.40162 17.1983C8.51071 16.9967 8.54719 16.7637 8.50496 16.5383L6.93329 8.1C6.90344 7.94028 6.91297 7.77569 6.96104 7.62048C7.00911 7.46527 7.09427 7.32411 7.20917 7.20921C7.32406 7.09432 7.46522 7.00915 7.62044 6.96108C7.77565 6.91301 7.94024 6.90349 8.09996 6.93333L16.5383 8.505C16.7636 8.54723 16.9966 8.51075 17.1983 8.40167L24.7383 4.29833C24.881 4.22096 25.0404 4.17948 25.2027 4.17748C25.365 4.17548 25.5253 4.21301 25.6699 4.28685C25.8144 4.36068 25.9388 4.46859 26.0323 4.60126C26.1259 4.73393 26.1857 4.88737 26.2066 5.04833L27.32 13.5583C27.3499 13.7856 27.457 13.9956 27.6233 14.1533L33.855 20.0567C33.9727 20.1684 34.0615 20.3071 34.1136 20.4608C34.1658 20.6144 34.1798 20.7785 34.1543 20.9388C34.1289 21.0991 34.0649 21.2508 33.9677 21.3808C33.8705 21.5108 33.7432 21.6152 33.5966 21.685L25.8466 25.3733C25.6392 25.472 25.472 25.6392 25.3733 25.8467ZM26.7016 29.0583L29.0583 26.7017L36.13 33.7717L33.7716 36.13L26.7016 29.0583Z" fill="url(#paint0_linear_1_11881)"/>
</g>
<defs>
<filter id="filter0_i_1_11881" x="4.17725" y="4.1774" width="31.9526" height="35.9526" filterUnits="userSpaceOnUse" color-interpolation-filters="sRGB">
<feFlood flood-opacity="0" result="BackgroundImageFix"/>
<feBlend mode="normal" in="SourceGraphic" in2="BackgroundImageFix" result="shape"/>
<feColorMatrix in="SourceAlpha" type="matrix" values="0 0 0 0 0 0 0 0 0 0 0 0 0 0 0 0 0 0 127 0" result="hardAlpha"/>
<feOffset dy="4"/>
<feGaussianBlur stdDeviation="2"/>
<feComposite in2="hardAlpha" operator="arithmetic" k2="-1" k3="1"/>
<feColorMatrix type="matrix" values="0 0 0 0 1 0 0 0 0 1 0 0 0 0 1 0 0 0 0.25 0"/>
<feBlend mode="normal" in2="shape" result="effect1_innerShadow_1_11881"/>
</filter>
<linearGradient id="paint0_linear_1_11881" x1="20.1536" y1="4.1774" x2="20.1536" y2="36.13" gradientUnits="userSpaceOnUse">
<stop stop-color="#FF3A44"/>
<stop offset="1" stop-color="#992329"/>
</linearGradient>
</defs>
</svg>
